<?xml version="1.0" encoding="UTF-8"?>
<svg version="1.1" xmlns="http://www.w3.org/2000/svg" width="512" height="512">
<path d="M0 0 C1.0109025 -0.00233999 1.0109025 -0.00233999 2.04222727 -0.00472724 C4.31703233 -0.00873922 6.59177151 -0.00554685 8.86657715 -0.00241089 C10.49069763 -0.00376484 12.11481779 -0.00554474 13.73893738 -0.00772095 C18.16236556 -0.01229599 22.58577053 -0.01050543 27.00919914 -0.00734186 C31.62787821 -0.00481862 36.24655523 -0.0071557 40.86523438 -0.00872803 C48.62300983 -0.01054983 56.38077579 -0.00814314 64.1385498 -0.00338745 C73.12093127 0.00205519 82.10329004 0.00029254 91.08567095 -0.00521386 C98.78330954 -0.00974469 106.48094127 -0.01039568 114.17858076 -0.00777519 C118.78237245 -0.00621225 123.38615345 -0.00601911 127.98994446 -0.00931168 C132.31710185 -0.01218995 136.64422985 -0.0102155 140.97138405 -0.00441742 C142.56417098 -0.00308959 144.15696036 -0.00348433 145.74974632 -0.00568008 C147.91482253 -0.0083907 150.07980303 -0.00501159 152.24487305 0 C153.45941917 0.00037703 154.6739653 0.00075405 155.92531586 0.0011425 C158.62243652 0.12698364 158.62243652 0.12698364 159.62243652 1.12698364 C159.53212078 3.48393318 159.37555524 5.83851947 159.18493652 8.18948364 C159.08310059 9.47983521 158.98126465 10.77018677 158.87634277 12.09963989 C158.79255371 13.09866333 158.70876465 14.09768677 158.62243652 15.12698364 C159.6820459 15.11538208 160.74165527 15.10378052 161.83337402 15.09182739 C163.2213931 15.08244889 164.60941407 15.07334875 165.99743652 15.06448364 C166.6961084 15.05610474 167.39478027 15.04772583 168.11462402 15.03909302 C173.39587402 15.01370239 173.39587402 15.01370239 175.62243652 16.12698364 C175.62243652 21.07698364 175.62243652 26.02698364 175.62243652 31.12698364 C177.60243652 30.79698364 179.58243652 30.46698364 181.62243652 30.12698364 C183.22491938 30.04251168 184.83023814 29.99651619 186.43493652 30.00198364 C187.58929199 29.99811646 187.58929199 29.99811646 188.76696777 29.99417114 C190.62243652 30.12698364 190.62243652 30.12698364 191.62243652 31.12698364 C191.71661425 33.21317387 191.7398653 35.30258841 191.73596191 37.39089966 C191.73610794 38.04453491 191.73625397 38.69817017 191.73640442 39.37161255 C191.73570535 41.54140493 191.7279133 43.71111243 191.72009277 45.88088989 C191.71822857 47.38161675 191.71680468 48.88234422 191.71580505 50.3830719 C191.71198005 54.34016591 191.70214992 58.29722343 191.69110107 62.25430298 C191.68088658 66.28933214 191.67630735 70.32436717 191.67126465 74.35940552 C191.66052763 82.28194834 191.64345142 90.20446146 191.62243652 98.12698364 C195.58243652 98.12698364 199.54243652 98.12698364 203.62243652 98.12698364 C203.5992334 97.13956177 203.57603027 96.15213989 203.55212402 95.13479614 C203.53407715 93.85346802 203.51603027 92.57213989 203.49743652 91.25198364 C203.4742334 89.97581177 203.45103027 88.69963989 203.42712402 87.38479614 C203.62243652 84.12698364 203.62243652 84.12698364 205.62243652 82.12698364 C208.66149902 81.93167114 208.66149902 81.93167114 212.24743652 82.00198364 C213.43595215 82.02003052 214.62446777 82.03807739 215.84899902 82.05667114 C216.7642334 82.07987427 217.67946777 82.10307739 218.62243652 82.12698364 C218.61083496 81.22335083 218.5992334 80.31971802 218.58728027 79.38870239 C218.57374512 77.61946411 218.57374512 77.61946411 218.55993652 75.81448364 C218.54833496 74.64272583 218.5367334 73.47096802 218.52478027 72.26370239 C218.62243652 69.12698364 218.62243652 69.12698364 219.62243652 66.12698364 C224.30382906 66.10233076 228.98518411 66.08414625 233.66662598 66.072052 C235.26038267 66.06701207 236.85413471 66.06018015 238.44787598 66.05154419 C240.73393905 66.03946366 243.01994119 66.03375209 245.30603027 66.02932739 C246.0227037 66.02416611 246.73937714 66.01900482 247.47776794 66.01368713 C249.19307325 66.01349101 250.90824919 66.06506357 252.62243652 66.12698364 C253.62243652 67.12698364 253.62243652 67.12698364 253.74269104 68.95561218 C253.74047043 69.75281174 253.73824982 70.55001129 253.73596191 71.37136841 C253.73588638 72.27222672 253.73581085 73.17308502 253.73573303 74.10124207 C253.73057175 75.08040085 253.72541046 76.05955963 253.72009277 77.06838989 C253.71797035 78.5645005 253.71797035 78.5645005 253.71580505 80.09083557 C253.71018767 83.29041488 253.69763223 86.48992533 253.68493652 89.68948364 C253.67992376 91.85289409 253.67536047 94.01630564 253.67126465 96.17971802 C253.66021259 101.49549994 253.64293631 106.8112301 253.62243652 112.12698364 C259.23243652 112.12698364 264.84243652 112.12698364 270.62243652 112.12698364 C270.62243652 123.67698364 270.62243652 135.22698364 270.62243652 147.12698364 C265.01243652 147.12698364 259.40243652 147.12698364 253.62243652 147.12698364 C253.62243652 152.40698364 253.62243652 157.68698364 253.62243652 163.12698364 C248.45851823 164.84828974 243.02952416 164.18051916 237.62243652 164.12698364 C237.62243652 168.41698364 237.62243652 172.70698364 237.62243652 177.12698364 C239.22925293 177.1095813 239.22925293 177.1095813 240.86853027 177.09182739 C242.26566396 177.08245066 243.66279951 177.07335033 245.05993652 177.06448364 C245.7669873 177.05610474 246.47403809 177.04772583 247.20251465 177.03909302 C249.00937212 177.03044777 250.81631255 177.07478353 252.62243652 177.12698364 C253.62243652 178.12698364 253.62243652 178.12698364 253.74269104 180.67692566 C253.74047043 181.81165817 253.73824982 182.94639069 253.73596191 184.11550903 C253.73588638 185.39676163 253.73581085 186.67801422 253.73573303 187.99809265 C253.73062562 189.40694212 253.72540961 190.8157912 253.72009277 192.22463989 C253.71822855 193.65810599 253.71680467 195.09157272 253.71580505 196.52503967 C253.71198025 200.30458321 253.70215029 204.08408854 253.69110107 207.86361694 C253.68088615 211.71767663 253.67630726 215.57174246 253.67126465 219.42581177 C253.66052798 226.99288651 253.64345201 234.55992973 253.62243652 242.12698364 C254.50233498 242.10486061 254.50233498 242.10486061 255.40000916 242.08229065 C261.48256011 241.93035297 267.56524979 241.78548742 273.64807129 241.64480591 C275.9209016 241.59129885 278.19368961 241.53596309 280.46643066 241.47879028 C283.72537101 241.39712148 286.98440488 241.32194113 290.24353027 241.24807739 C291.77788979 241.2075248 291.77788979 241.2075248 293.34324646 241.16615295 C294.28414627 241.14605667 295.22504608 241.12596039 296.19445801 241.10525513 C297.44355202 241.07527687 297.44355202 241.07527687 298.71788025 241.04469299 C300.62243652 241.12698364 300.62243652 241.12698364 301.62243652 242.12698364 C301.72224866 244.80429744 301.76123528 247.45002539 301.74743652 250.12698364 C301.75130371 250.87721802 301.7551709 251.62745239 301.75915527 252.40042114 C301.74904706 258.00037311 301.74904706 258.00037311 300.62243652 259.12698364 C299.14889304 259.22002382 297.67093061 259.24444629 296.19445801 259.24050903 C295.2535582 259.2404335 294.31265839 259.24035797 293.34324646 259.24028015 C292.32034012 259.23511887 291.29743378 259.22995758 290.24353027 259.22463989 C288.68083153 259.22251747 288.68083153 259.22251747 287.08656311 259.22035217 C283.74432558 259.21473444 280.40215396 259.20217894 277.05993652 259.18948364 C274.80017186 259.18447093 272.54040616 259.17990763 270.28063965 259.17581177 C264.72787971 259.16475925 259.1751693 259.14748274 253.62243652 259.12698364 C253.62243652 263.41698364 253.62243652 267.70698364 253.62243652 272.12698364 C256.83606934 272.00130005 256.83606934 272.00130005 260.11462402 271.87307739 C262.18635691 271.79570446 264.25814909 271.72016582 266.32995605 271.64480591 C267.77143475 271.59138774 269.21284393 271.53605847 270.6541748 271.47879028 C272.72417205 271.39687367 274.79432079 271.32180005 276.86462402 271.24807739 C278.73416748 271.17738037 278.73416748 271.17738037 280.64147949 271.10525513 C283.62243652 271.12698364 283.62243652 271.12698364 285.62243652 272.12698364 C285.67657452 274.37671811 285.71529144 276.62682747 285.74743652 278.87698364 C285.77063965 280.12995239 285.79384277 281.38292114 285.81774902 282.67385864 C285.62243652 286.12698364 285.62243652 286.12698364 283.62243652 290.12698364 C268.44243652 289.79698364 253.26243652 289.46698364 237.62243652 289.12698364 C237.62243652 294.40698364 237.62243652 299.68698364 237.62243652 305.12698364 C232.34243652 305.12698364 227.06243652 305.12698364 221.62243652 305.12698364 C221.66200442 310.01851835 221.66200442 310.01851835 221.71252441 314.90994263 C221.71968566 316.64920081 221.67268355 318.38843668 221.62243652 320.12698364 C220.62243652 321.12698364 220.62243652 321.12698364 217.24353027 321.22463989 C215.84896161 321.21889788 214.45442055 321.20588592 213.05993652 321.18948364 C210.60556152 321.16885864 208.15118652 321.14823364 205.62243652 321.12698364 C205.62243652 326.07698364 205.62243652 331.02698364 205.62243652 336.12698364 C201.85349979 337.06921783 198.94922561 337.25604319 195.09118652 337.25979614 C193.80470215 337.26108521 192.51821777 337.26237427 191.19274902 337.26370239 C190.18776367 337.2605603 190.18776367 337.2605603 189.16247559 337.25735474 C187.15694757 337.2520745 185.15140029 337.2577922 183.14587402 337.26370239 C181.20067871 337.2617688 181.20067871 337.2617688 179.21618652 337.25979614 C178.04765137 337.25866821 176.87911621 337.25754028 175.6751709 337.25637817 C170.3137646 337.08520074 164.96804575 336.57245108 159.62243652 336.12698364 C159.62243652 346.35698364 159.62243652 356.58698364 159.62243652 367.12698364 C164.57243652 367.12698364 169.52243652 367.12698364 174.62243652 367.12698364 C199.13660476 391.64115188 175.62243652 436.45871445 175.62243652 471.12698364 C100.38243652 471.12698364 25.14243652 471.12698364 -52.37756348 471.12698364 C-53.02527379 459.46819791 -53.52911925 447.9635031 -53.51037598 436.31057739 C-53.51105233 434.79170211 -53.5120251 433.27282694 -53.51327515 431.75395203 C-53.5147289 428.61729877 -53.51266874 425.48067448 -53.50793457 422.34402466 C-53.50215387 418.31797537 -53.50558251 414.29199154 -53.51150703 410.26594448 C-53.51510484 407.15113318 -53.51397914 404.0363377 -53.51137924 400.92152596 C-53.51071211 399.43470311 -53.51153095 397.94787883 -53.5138588 396.46105766 C-53.5163814 394.40361513 -53.51255428 392.3462831 -53.50695801 390.28884888 C-53.50616241 389.11958359 -53.50536682 387.9503183 -53.50454712 386.74562073 C-53.37756348 384.12698364 -53.37756348 384.12698364 -52.37756348 383.12698364 C-50.18706326 383.2171636 -47.99909747 383.37364572 -45.81506348 383.56448364 C-43.69068848 383.75010864 -41.56631348 383.93573364 -39.37756348 384.12698364 C-39.37756348 379.17698364 -39.37756348 374.22698364 -39.37756348 369.12698364 C-34.93215517 367.34882032 -33.09640951 366.89279458 -28.56506348 367.00198364 C-27.58924316 367.02003052 -26.61342285 367.03807739 -25.60803223 367.05667114 C-24.5039502 367.09147583 -24.5039502 367.09147583 -23.37756348 367.12698364 C-23.4007666 366.22335083 -23.42396973 365.31971802 -23.44787598 364.38870239 C-23.46592285 363.20921021 -23.48396973 362.02971802 -23.50256348 360.81448364 C-23.5257666 359.64272583 -23.54896973 358.47096802 -23.57287598 357.26370239 C-23.37756348 354.12698364 -23.37756348 354.12698364 -21.37756348 351.12698364 C-18.11975098 350.83401489 -18.11975098 350.83401489 -14.25256348 350.93948364 C-11.98381348 351.00135864 -9.71506348 351.06323364 -7.37756348 351.12698364 C-7.37756348 346.17698364 -7.37756348 341.22698364 -7.37756348 336.12698364 C-8.67750244 336.28996948 -9.97744141 336.45295532 -11.31677246 336.62088013 C-16.01331086 337.14083253 -20.62920342 337.25658013 -25.35021973 337.22463989 C-26.15873886 337.22322495 -26.967258 337.22181 -27.80027771 337.22035217 C-30.34691289 337.21481779 -32.89345551 337.20227824 -35.44006348 337.18948364 C-37.18159865 337.18446014 -38.92313523 337.17989873 -40.66467285 337.17581177 C-44.90236619 337.16572682 -49.13986295 337.1461395 -53.37756348 337.12698364 C-53.37756348 331.84698364 -53.37756348 326.56698364 -53.37756348 321.12698364 C-58.98756348 321.12698364 -64.59756348 321.12698364 -70.37756348 321.12698364 C-70.37756348 316.17698364 -70.37756348 311.22698364 -70.37756348 306.12698364 C-75.32756348 305.79698364 -80.27756348 305.46698364 -85.37756348 305.12698364 C-85.37756348 299.84698364 -85.37756348 294.56698364 -85.37756348 289.12698364 C-86.79609619 289.13222046 -88.21462891 289.13745728 -89.67614746 289.14285278 C-94.91849135 289.16089673 -100.16083248 289.17241342 -105.40319824 289.18191528 C-107.67598939 289.1869569 -109.94877727 289.19379002 -112.22155762 289.2024231 C-115.48059899 289.21449625 -118.73959764 289.22021351 -121.99865723 289.22463989 C-123.02156357 289.22980118 -124.04446991 289.23496246 -125.09837341 289.24028015 C-126.03927322 289.24035568 -126.98017303 289.24043121 -127.94958496 289.24050903 C-128.7823143 289.24272964 -129.61504364 289.24495026 -130.4730072 289.24723816 C-132.37756348 289.12698364 -132.37756348 289.12698364 -133.37756348 288.12698364 C-133.4775399 285.6363945 -133.51635974 283.17970969 -133.50256348 280.68948364 C-133.50836426 279.64824341 -133.50836426 279.64824341 -133.51428223 278.58596802 C-133.50420342 273.38026353 -133.50420342 273.38026353 -132.37756348 271.12698364 C-122.14756348 271.45698364 -111.91756348 271.78698364 -101.37756348 272.12698364 C-101.37756348 268.16698364 -101.37756348 264.20698364 -101.37756348 260.12698364 C-102.82638916 260.10192749 -104.27521484 260.07687134 -105.76794434 260.05105591 C-111.12220745 259.95717678 -116.47633488 259.85690923 -121.83044434 259.75466919 C-124.15170121 259.71124625 -126.47299155 259.6695768 -128.79431152 259.62966919 C-132.12294626 259.57214425 -135.45141133 259.50839939 -138.77990723 259.44338989 C-139.82468735 259.4266774 -140.86946747 259.4099649 -141.94590759 259.39274597 C-142.90682816 259.37280075 -143.86774872 259.35285553 -144.85778809 259.33230591 C-146.13352943 259.30898949 -146.13352943 259.30898949 -147.43504333 259.28520203 C-149.37756348 259.12698364 -149.37756348 259.12698364 -150.37756348 258.12698364 C-150.4775399 255.6363945 -150.51635974 253.17970969 -150.50256348 250.68948364 C-150.50643066 249.99532349 -150.51029785 249.30116333 -150.51428223 248.58596802 C-150.50420342 243.38026353 -150.50420342 243.38026353 -149.37756348 241.12698364 C-133.86756348 241.12698364 -118.35756348 241.12698364 -102.37756348 241.12698364 C-101.31679555 219.77902918 -101.27104355 198.49488108 -101.37756348 177.12698364 C-95.66902538 176.10193176 -91.12483934 176.42799063 -85.37756348 177.12698364 C-85.70756348 172.83698364 -86.03756348 168.54698364 -86.37756348 164.12698364 C-91.32756348 163.79698364 -96.27756348 163.46698364 -101.37756348 163.12698364 C-101.37756348 157.84698364 -101.37756348 152.56698364 -101.37756348 147.12698364 C-106.55468181 147.57408704 -106.55468181 147.57408704 -111.7286377 148.05545044 C-113.60654486 148.19555424 -115.49481695 148.16479779 -117.37756348 148.12698364 C-119.76998189 144.53835602 -119.63499649 142.8933563 -119.64318848 138.63088989 C-119.6457666 137.3502063 -119.64834473 136.06952271 -119.65100098 134.75003052 C-119.6447168 133.7502417 -119.6447168 133.7502417 -119.63830566 132.73025513 C-119.62761927 130.7000832 -119.63820026 128.67079966 -119.65100098 126.64065552 C-119.64842285 125.35868286 -119.64584473 124.07671021 -119.64318848 122.75588989 C-119.64093262 121.58098999 -119.63867676 120.40609009 -119.63635254 119.19558716 C-119.37756348 116.12698364 -119.37756348 116.12698364 -117.37756348 112.12698364 C-112.42756348 112.12698364 -107.47756348 112.12698364 -102.37756348 112.12698364 C-101.60422846 99.76743293 -101.27736943 87.47738204 -101.41467285 75.09207153 C-101.42305176 74.06847534 -101.43143066 73.04487915 -101.44006348 71.99026489 C-101.45166504 71.07543335 -101.4632666 70.16060181 -101.47521973 69.2180481 C-101.37756348 67.12698364 -101.37756348 67.12698364 -100.37756348 66.12698364 C-97.85662271 66.03850621 -95.36325455 66.01171063 -92.84240723 66.02932739 C-91.71253136 66.03144981 -91.71253136 66.03144981 -90.55982971 66.03361511 C-88.14486788 66.03922988 -85.72999747 66.05178481 -83.31506348 66.06448364 C-81.68160127 66.06949674 -80.04813762 66.07405998 -78.41467285 66.07815552 C-74.40226763 66.08920411 -70.38993107 66.10647858 -66.37756348 66.12698364 C-65.66079159 70.11870317 -65.32447837 73.4682839 -65.81506348 77.50198364 C-65.91689941 78.37596802 -66.01873535 79.24995239 -66.12365723 80.15042114 C-66.24934082 81.12881958 -66.24934082 81.12881958 -66.37756348 82.12698364 C-65.3901416 82.16436646 -64.40271973 82.20174927 -63.38537598 82.24026489 C-62.10404785 82.30600708 -60.82271973 82.37174927 -59.50256348 82.43948364 C-58.2263916 82.49749146 -56.95021973 82.55549927 -55.63537598 82.61526489 C-54.56029785 82.78413208 -53.48521973 82.95299927 -52.37756348 83.12698364 C-49.0587606 88.10518796 -50.80107584 93.30445855 -51.37756348 99.12698364 C-46.75756348 99.12698364 -42.13756348 99.12698364 -37.37756348 99.12698364 C-37.51976318 98.0469104 -37.66196289 96.96683716 -37.80847168 95.85403442 C-39.35289675 83.29465815 -39.65759733 70.88570511 -39.58337402 58.24075317 C-39.56473362 54.94363934 -39.56286766 51.64680172 -39.56311035 48.34963989 C-39.55820727 46.25198119 -39.55238432 44.15432438 -39.54553223 42.05667114 C-39.5444194 41.07149506 -39.54330658 40.08631897 -39.54216003 39.07128906 C-39.53578018 38.17169464 -39.52940033 37.27210022 -39.52282715 36.34524536 C-39.51901535 35.55205902 -39.51520355 34.75887268 -39.51127625 33.94165039 C-39.37756348 32.12698364 -39.37756348 32.12698364 -38.37756348 31.12698364 C-35.84706946 31.05384798 -33.34451511 31.03450837 -30.81506348 31.06448364 C-29.74868652 31.07125122 -29.74868652 31.07125122 -28.6607666 31.07815552 C-26.89966334 31.089975 -25.13860312 31.10791101 -23.37756348 31.12698364 C-23.87256348 30.13698364 -23.87256348 30.13698364 -24.37756348 29.12698364 C-24.4990234 27.29661077 -24.55299533 25.46134231 -24.56506348 23.62698364 C-24.57924316 22.64729614 -24.59342285 21.66760864 -24.60803223 20.65823364 C-24.37756348 18.12698364 -24.37756348 18.12698364 -22.37756348 16.12698364 C-19.79692219 15.9820038 -17.32812463 15.94020819 -14.75256348 16.00198364 C-13.6929541 16.0155188 -13.6929541 16.0155188 -12.61193848 16.02932739 C-10.8670025 16.05290761 -9.12224053 16.08877904 -7.37756348 16.12698364 C-7.38916504 15.05577271 -7.4007666 13.98456177 -7.41271973 12.88088989 C-7.42209646 11.48375621 -7.43119679 10.08662065 -7.44006348 8.68948364 C-7.44844238 7.98243286 -7.45682129 7.27538208 -7.4654541 6.54690552 C-7.47409935 4.74004805 -7.42976359 2.93310761 -7.37756348 1.12698364 C-5.52528449 -0.72529534 -2.47557611 0.00076848 0 0 Z M12.67712402 190.24807739 C11.79211212 190.27168839 10.90710022 190.29529938 9.99526978 190.31962585 C7.16249835 190.39633288 4.32999548 190.48032686 1.49743652 190.56448364 C-0.42051899 190.61769728 -2.33848769 190.67043773 -4.25646973 190.72268677 C-8.96367174 190.85195755 -13.67064559 190.98776494 -18.37756348 191.12698364 C-18.70756348 195.74698364 -19.03756348 200.36698364 -19.37756348 205.12698364 C-27.29756348 205.62198364 -27.29756348 205.62198364 -35.37756348 206.12698364 C-35.37756348 222.29698364 -35.37756348 238.46698364 -35.37756348 255.12698364 C-30.75756348 255.12698364 -26.13756348 255.12698364 -21.37756348 255.12698364 C-20.71756348 255.45698364 -20.05756348 255.78698364 -19.37756348 256.12698364 C-19.06514977 258.67639738 -18.86452927 261.13059878 -18.75256348 263.68948364 C-18.7138916 264.40040161 -18.67521973 265.11131958 -18.63537598 265.84378052 C-18.54084565 267.60440789 -18.45810531 269.36566092 -18.37756348 271.12698364 C-9.54396074 272.41500609 -0.71752003 272.23835264 8.18493652 272.18948364 C9.78194033 272.18445907 11.37894566 272.17989786 12.97595215 272.17581177 C16.85818282 272.16573852 20.74019794 272.14614993 24.62243652 272.12698364 C24.62243652 266.84698364 24.62243652 261.56698364 24.62243652 256.12698364 C14.72243652 256.12698364 4.82243652 256.12698364 -5.37756348 256.12698364 C-5.37756348 238.96698364 -5.37756348 221.80698364 -5.37756348 204.12698364 C4.52243652 204.12698364 14.42243652 204.12698364 24.62243652 204.12698364 C24.29243652 199.83698364 23.96243652 195.54698364 23.62243652 191.12698364 C20.23365475 189.43259275 16.39436117 190.13184743 12.67712402 190.24807739 Z M129.62243652 191.12698364 C129.29243652 195.74698364 128.96243652 200.36698364 128.62243652 205.12698364 C123.67243652 205.45698364 118.72243652 205.78698364 113.62243652 206.12698364 C113.62243652 222.29698364 113.62243652 238.46698364 113.62243652 255.12698364 C119.23243652 255.12698364 124.84243652 255.12698364 130.62243652 255.12698364 C130.32946777 258.70771281 130.03649902 262.28844198 129.74353027 265.86917114 C129.36560285 269.01342306 129.36560285 269.01342306 130.62243652 271.12698364 C145.14243652 271.12698364 159.66243652 271.12698364 174.62243652 271.12698364 C175.25489206 260.49730396 175.25489206 260.49730396 173.62243652 256.12698364 C158.77243652 255.63198364 158.77243652 255.63198364 143.62243652 255.12698364 C143.62243652 238.62698364 143.62243652 222.12698364 143.62243652 205.12698364 C153.52243652 204.79698364 163.42243652 204.46698364 173.62243652 204.12698364 C174.86621046 201.63943578 174.75549887 199.90043063 174.74743652 197.12698364 C174.75001465 196.24010864 174.75259277 195.35323364 174.75524902 194.43948364 C174.77371554 192.10021398 174.77371554 192.10021398 173.62243652 190.12698364 C168.6419714 190.10211193 163.6615431 190.08404284 158.68103027 190.072052 C156.98961761 190.06704878 155.29820921 190.06024412 153.60681152 190.05154419 C151.16409242 190.03930179 148.7214309 190.03371509 146.27868652 190.02932739 C145.53252075 190.02416611 144.78635498 190.01900482 144.01757812 190.01368713 C139.13487679 190.01317502 134.45727853 190.43663318 129.62243652 191.12698364 Z M175.62243652 205.12698364 C175.59716814 212.08701811 175.5796043 219.04704084 175.56750488 226.0071106 C175.56246311 228.37690676 175.55562987 230.74669979 175.54699707 233.1164856 C175.53492462 236.51452403 175.52920682 239.9125215 175.52478027 243.31057739 C175.51961899 244.37723129 175.5144577 245.44388519 175.50914001 246.54286194 C175.50906448 247.52380325 175.50898895 248.50474457 175.50891113 249.51541138 C175.50669052 250.3836705 175.50446991 251.25192963 175.50218201 252.14649963 C175.40288985 254.12842045 175.40288985 254.12842045 176.62243652 255.12698364 C178.80883106 255.1995731 180.99744041 255.21072147 183.18493652 255.18948364 C184.38247559 255.18046021 185.58001465 255.17143677 186.81384277 255.16213989 C188.20409668 255.14473755 188.20409668 255.14473755 189.62243652 255.12698364 C189.6477049 248.16694917 189.66526875 241.20692644 189.67736816 234.24685669 C189.68240994 231.87706053 189.68924317 229.50726749 189.69787598 227.13748169 C189.70994842 223.73944325 189.71566623 220.34144579 189.72009277 216.94338989 C189.72525406 215.87673599 189.73041534 214.81008209 189.73573303 213.71110535 C189.73580856 212.73016403 189.73588409 211.74922272 189.73596191 210.73855591 C189.73818253 209.87029678 189.74040314 209.00203766 189.74269104 208.10746765 C189.8419832 206.12554684 189.8419832 206.12554684 188.62243652 205.12698364 C186.43604199 205.05439418 184.24743263 205.04324582 182.05993652 205.06448364 C180.86239746 205.07350708 179.6648584 205.08253052 178.43103027 205.09182739 C177.04077637 205.10922974 177.04077637 205.10922974 175.62243652 205.12698364 Z M25.62243652 206.12698364 C25.62243652 222.29698364 25.62243652 238.46698364 25.62243652 255.12698364 C30.24243652 255.12698364 34.86243652 255.12698364 39.62243652 255.12698364 C39.62243652 238.95698364 39.62243652 222.78698364 39.62243652 206.12698364 C35.00243652 206.12698364 30.38243652 206.12698364 25.62243652 206.12698364 Z M72.62243652 272.12698364 C72.62243652 277.07698364 72.62243652 282.02698364 72.62243652 287.12698364 C81.86243652 287.12698364 91.10243652 287.12698364 100.62243652 287.12698364 C100.62243652 282.17698364 100.62243652 277.22698364 100.62243652 272.12698364 C91.38243652 272.12698364 82.14243652 272.12698364 72.62243652 272.12698364 Z " fill="#080E0F" transform="translate(182.3775634765625,40.873016357421875)"/>
<path d="M0 0 C1.0109025 -0.00233999 1.0109025 -0.00233999 2.04222727 -0.00472724 C4.31703233 -0.00873922 6.59177151 -0.00554685 8.86657715 -0.00241089 C10.49069763 -0.00376484 12.11481779 -0.00554474 13.73893738 -0.00772095 C18.16236556 -0.01229599 22.58577053 -0.01050543 27.00919914 -0.00734186 C31.62787821 -0.00481862 36.24655523 -0.0071557 40.86523438 -0.00872803 C48.62300983 -0.01054983 56.38077579 -0.00814314 64.1385498 -0.00338745 C73.12093127 0.00205519 82.10329004 0.00029254 91.08567095 -0.00521386 C98.78330954 -0.00974469 106.48094127 -0.01039568 114.17858076 -0.00777519 C118.78237245 -0.00621225 123.38615345 -0.00601911 127.98994446 -0.00931168 C132.31710185 -0.01218995 136.64422985 -0.0102155 140.97138405 -0.00441742 C142.56417098 -0.00308959 144.15696036 -0.00348433 145.74974632 -0.00568008 C147.91482253 -0.0083907 150.07980303 -0.00501159 152.24487305 0 C153.45941917 0.00037703 154.6739653 0.00075405 155.92531586 0.0011425 C158.62243652 0.12698364 158.62243652 0.12698364 159.62243652 1.12698364 C159.53212078 3.48393318 159.37555524 5.83851947 159.18493652 8.18948364 C159.08310059 9.47983521 158.98126465 10.77018677 158.87634277 12.09963989 C158.79255371 13.09866333 158.70876465 14.09768677 158.62243652 15.12698364 C159.6820459 15.11538208 160.74165527 15.10378052 161.83337402 15.09182739 C163.2213931 15.08244889 164.60941407 15.07334875 165.99743652 15.06448364 C166.6961084 15.05610474 167.39478027 15.04772583 168.11462402 15.03909302 C173.39587402 15.01370239 173.39587402 15.01370239 175.62243652 16.12698364 C175.62243652 21.07698364 175.62243652 26.02698364 175.62243652 31.12698364 C177.60243652 30.79698364 179.58243652 30.46698364 181.62243652 30.12698364 C183.22491938 30.04251168 184.83023814 29.99651619 186.43493652 30.00198364 C187.58929199 29.99811646 187.58929199 29.99811646 188.76696777 29.99417114 C190.62243652 30.12698364 190.62243652 30.12698364 191.62243652 31.12698364 C191.71661425 33.21317387 191.7398653 35.30258841 191.73596191 37.39089966 C191.73610794 38.04453491 191.73625397 38.69817017 191.73640442 39.37161255 C191.73570535 41.54140493 191.7279133 43.71111243 191.72009277 45.88088989 C191.71822857 47.38161675 191.71680468 48.88234422 191.71580505 50.3830719 C191.71198005 54.34016591 191.70214992 58.29722343 191.69110107 62.25430298 C191.68088658 66.28933214 191.67630735 70.32436717 191.67126465 74.35940552 C191.66052763 82.2819502 191.64293098 90.20445818 191.62243652 98.12698364 C195.91243652 98.12698364 200.20243652 98.12698364 204.62243652 98.12698364 C204.62243652 98.78698364 204.62243652 99.44698364 204.62243652 100.12698364 C199.67243652 100.12698364 194.72243652 100.12698364 189.62243652 100.12698364 C189.62243652 77.68698364 189.62243652 55.24698364 189.62243652 32.12698364 C181.86359773 32.19249346 181.86359773 32.19249346 174.62243652 34.12698364 C174.29243652 60.52698364 173.96243652 86.92698364 173.62243652 114.12698364 C199.36243652 114.12698364 225.10243652 114.12698364 251.62243652 114.12698364 C251.62243652 119.40698364 251.62243652 124.68698364 251.62243652 130.12698364 C246.34243652 130.12698364 241.06243652 130.12698364 235.62243652 130.12698364 C235.62243652 135.40698364 235.62243652 140.68698364 235.62243652 146.12698364 C135.63243652 146.12698364 35.64243652 146.12698364 -67.37756348 146.12698364 C-67.37756348 140.84698364 -67.37756348 135.56698364 -67.37756348 130.12698364 C-78.26756348 130.12698364 -89.15756348 130.12698364 -100.37756348 130.12698364 C-100.37756348 125.17698364 -100.37756348 120.22698364 -100.37756348 115.12698364 C-83.85457786 114.35461448 -67.38229461 113.9874275 -50.84240723 114.02932739 C-48.61369357 114.03120018 -46.38497948 114.03261999 -44.15626526 114.03361511 C-38.3845601 114.03737267 -32.61288145 114.04714222 -26.84118652 114.05831909 C-20.9138627 114.06868155 -14.98653444 114.07314399 -9.0592041 114.07815552 C2.5013561 114.08877302 14.06188993 114.10631198 25.62243652 114.12698364 C25.62243652 104.55698364 25.62243652 94.98698364 25.62243652 85.12698364 C10.11243652 85.12698364 -5.39756348 85.12698364 -21.37756348 85.12698364 C-22.52683546 69.03717586 -22.52683546 69.03717586 -22.47521973 61.44729614 C-22.47380478 60.6236557 -22.47238983 59.80001526 -22.47093201 58.95141602 C-22.46544597 56.38489752 -22.45291776 53.81847463 -22.44006348 51.25198364 C-22.43503366 49.48505784 -22.4304734 47.71813064 -22.4263916 45.95120239 C-22.41551438 41.67642738 -22.39833325 37.40172156 -22.37756348 33.12698364 C-27.32756348 32.79698364 -32.27756348 32.46698364 -37.37756348 32.12698364 C-37.37756348 50.93698364 -37.37756348 69.74698364 -37.37756348 89.12698364 C-37.70756348 89.12698364 -38.03756348 89.12698364 -38.37756348 89.12698364 C-39.2619196 82.3085716 -39.52428028 75.6545871 -39.51037598 68.78323364 C-39.5113327 67.73292969 -39.51228943 66.68262573 -39.51327515 65.60049438 C-39.51395155 63.39871154 -39.51213521 61.19692664 -39.50793457 58.99514771 C-39.50253537 55.60936088 -39.50791981 52.22370412 -39.51428223 48.83792114 C-39.51362219 46.69469168 -39.51234258 44.5514623 -39.51037598 42.40823364 C-39.51240021 41.39168701 -39.51442444 40.37514038 -39.51651001 39.32778931 C-39.51178177 37.9299823 -39.51178177 37.9299823 -39.50695801 36.50393677 C-39.50616241 35.68058838 -39.50536682 34.85723999 -39.50454712 34.00894165 C-39.37756348 32.12698364 -39.37756348 32.12698364 -38.37756348 31.12698364 C-35.84706946 31.05384798 -33.34451511 31.03450837 -30.81506348 31.06448364 C-29.74868652 31.07125122 -29.74868652 31.07125122 -28.6607666 31.07815552 C-26.89966334 31.089975 -25.13860312 31.10791101 -23.37756348 31.12698364 C-23.87256348 30.13698364 -23.87256348 30.13698364 -24.37756348 29.12698364 C-24.4990234 27.29661077 -24.55299533 25.46134231 -24.56506348 23.62698364 C-24.57924316 22.64729614 -24.59342285 21.66760864 -24.60803223 20.65823364 C-24.37756348 18.12698364 -24.37756348 18.12698364 -22.37756348 16.12698364 C-19.79692219 15.9820038 -17.32812463 15.94020819 -14.75256348 16.00198364 C-14.04615723 16.01100708 -13.33975098 16.02003052 -12.61193848 16.02932739 C-10.8670025 16.05290761 -9.12224053 16.08877904 -7.37756348 16.12698364 C-7.38916504 15.05577271 -7.4007666 13.98456177 -7.41271973 12.88088989 C-7.42209646 11.48375621 -7.43119679 10.08662065 -7.44006348 8.68948364 C-7.44844238 7.98243286 -7.45682129 7.27538208 -7.4654541 6.54690552 C-7.47409935 4.74004805 -7.42976359 2.93310761 -7.37756348 1.12698364 C-5.52528449 -0.72529534 -2.47557611 0.00076848 0 0 Z " fill="#713C23" transform="translate(182.3775634765625,40.873016357421875)"/>
<path d="M0 0 C2.28937275 0.00028311 4.57874559 0.00012173 6.86811829 -0.0004425 C12.99454983 -0.00072565 19.1209612 0.00509195 25.24738812 0.01213145 C31.68282289 0.01844639 38.11825829 0.01897515 44.55369568 0.02015686 C55.32649113 0.02289695 66.09927844 0.02911343 76.87207031 0.03808594 C87.95377568 0.04730597 99.03547906 0.05436416 110.1171875 0.05859375 C111.14680983 0.05898784 111.14680983 0.05898784 112.19723261 0.05938988 C115.64177127 0.06069519 119.08630994 0.06195884 122.53084862 0.06320179 C150.97556739 0.07351958 179.42027852 0.09116511 207.86499023 0.11352539 C207.86499023 5.06352539 207.86499023 10.01352539 207.86499023 15.11352539 C218.75499023 15.11352539 229.64499023 15.11352539 240.86499023 15.11352539 C240.86499023 10.16352539 240.86499023 5.21352539 240.86499023 0.11352539 C261.32499023 0.11352539 281.78499023 0.11352539 302.86499023 0.11352539 C302.86499023 5.39352539 302.86499023 10.67352539 302.86499023 16.11352539 C297.58499023 16.11352539 292.30499023 16.11352539 286.86499023 16.11352539 C286.86499023 21.39352539 286.86499023 26.67352539 286.86499023 32.11352539 C186.87499023 32.11352539 86.88499023 32.11352539 -16.13500977 32.11352539 C-16.13500977 26.83352539 -16.13500977 21.55352539 -16.13500977 16.11352539 C-27.02500977 16.11352539 -37.91500977 16.11352539 -49.13500977 16.11352539 C-49.13500977 11.16352539 -49.13500977 6.21352539 -49.13500977 1.11352539 C-32.74596267 0.35172883 -16.40566433 -0.02908615 0 0 Z " fill="#5D301B" transform="translate(131.135009765625,154.886474609375)"/>
<path d="M0 0 C0.673935 -0.00155999 1.34787 -0.00311998 2.04222727 -0.00472724 C4.31703233 -0.00873922 6.59177151 -0.00554685 8.86657715 -0.00241089 C10.49069763 -0.00376484 12.11481779 -0.00554474 13.73893738 -0.00772095 C18.16236556 -0.01229599 22.58577053 -0.01050543 27.00919914 -0.00734186 C31.62787821 -0.00481862 36.24655523 -0.0071557 40.86523438 -0.00872803 C48.62300983 -0.01054983 56.38077579 -0.00814314 64.1385498 -0.00338745 C73.12093127 0.00205519 82.10329004 0.00029254 91.08567095 -0.00521386 C98.78330954 -0.00974469 106.48094127 -0.01039568 114.17858076 -0.00777519 C118.78237245 -0.00621225 123.38615345 -0.00601911 127.98994446 -0.00931168 C132.31710185 -0.01218995 136.64422985 -0.0102155 140.97138405 -0.00441742 C142.56417098 -0.00308959 144.15696036 -0.00348433 145.74974632 -0.00568008 C147.91482253 -0.0083907 150.07980303 -0.00501159 152.24487305 0 C153.45941917 0.00037703 154.6739653 0.00075405 155.92531586 0.0011425 C158.62243652 0.12698364 158.62243652 0.12698364 159.62243652 1.12698364 C159.53212078 3.48393318 159.37555524 5.83851947 159.18493652 8.18948364 C159.08310059 9.47983521 158.98126465 10.77018677 158.87634277 12.09963989 C158.79255371 13.09866333 158.70876465 14.09768677 158.62243652 15.12698364 C159.6820459 15.11538208 160.74165527 15.10378052 161.83337402 15.09182739 C163.2213931 15.08244889 164.60941407 15.07334875 165.99743652 15.06448364 C166.6961084 15.05610474 167.39478027 15.04772583 168.11462402 15.03909302 C173.39587402 15.01370239 173.39587402 15.01370239 175.62243652 16.12698364 C175.62243652 21.07698364 175.62243652 26.02698364 175.62243652 31.12698364 C178.59243652 30.63198364 178.59243652 30.63198364 181.62243652 30.12698364 C183.22491938 30.04251168 184.83023814 29.99651619 186.43493652 30.00198364 C187.58929199 29.99811646 187.58929199 29.99811646 188.76696777 29.99417114 C190.62243652 30.12698364 190.62243652 30.12698364 191.62243652 31.12698364 C191.71661425 33.21317387 191.7398653 35.30258841 191.73596191 37.39089966 C191.73610794 38.04453491 191.73625397 38.69817017 191.73640442 39.37161255 C191.73570535 41.54140493 191.7279133 43.71111243 191.72009277 45.88088989 C191.71822857 47.38161675 191.71680468 48.88234422 191.71580505 50.3830719 C191.71198005 54.34016591 191.70214992 58.29722343 191.69110107 62.25430298 C191.68088658 66.28933214 191.67630735 70.32436717 191.67126465 74.35940552 C191.66052763 82.2819502 191.64293098 90.20445818 191.62243652 98.12698364 C195.91243652 98.12698364 200.20243652 98.12698364 204.62243652 98.12698364 C204.62243652 98.78698364 204.62243652 99.44698364 204.62243652 100.12698364 C199.67243652 100.12698364 194.72243652 100.12698364 189.62243652 100.12698364 C189.62243652 77.68698364 189.62243652 55.24698364 189.62243652 32.12698364 C181.86359773 32.19249346 181.86359773 32.19249346 174.62243652 34.12698364 C174.29243652 50.95698364 173.96243652 67.78698364 173.62243652 85.12698364 C140.62243652 85.12698364 107.62243652 85.12698364 73.62243652 85.12698364 C73.29243652 79.51698364 72.96243652 73.90698364 72.62243652 68.12698364 C67.67243652 67.79698364 62.72243652 67.46698364 57.62243652 67.12698364 C57.62243652 61.51698364 57.62243652 55.90698364 57.62243652 50.12698364 C52.67243652 50.12698364 47.72243652 50.12698364 42.62243652 50.12698364 C42.62243652 44.51698364 42.62243652 38.90698364 42.62243652 33.12698364 C31.73243652 32.79698364 20.84243652 32.46698364 9.62243652 32.12698364 C9.62243652 27.17698364 9.62243652 22.22698364 9.62243652 17.12698364 C30.41243652 17.12698364 51.20243652 17.12698364 72.62243652 17.12698364 C72.62243652 22.40698364 72.62243652 27.68698364 72.62243652 33.12698364 C77.90243652 33.12698364 83.18243652 33.12698364 88.62243652 33.12698364 C88.62243652 38.40698364 88.62243652 43.68698364 88.62243652 49.12698364 C94.23243652 49.12698364 99.84243652 49.12698364 105.62243652 49.12698364 C105.62243652 43.84698364 105.62243652 38.56698364 105.62243652 33.12698364 C111.23243652 33.12698364 116.84243652 33.12698364 122.62243652 33.12698364 C122.62243652 27.84698364 122.62243652 22.56698364 122.62243652 17.12698364 C134.17243652 17.12698364 145.72243652 17.12698364 157.62243652 17.12698364 C157.62243652 11.84698364 157.62243652 6.56698364 157.62243652 1.12698364 C103.83243652 1.45698364 50.04243652 1.78698364 -5.37756348 2.12698364 C-5.70756348 7.07698364 -6.03756348 12.02698364 -6.37756348 17.12698364 C-11.65756348 17.12698364 -16.93756348 17.12698364 -22.37756348 17.12698364 C-22.37756348 16.79698364 -22.37756348 16.46698364 -22.37756348 16.12698364 C-17.42756348 16.12698364 -12.47756348 16.12698364 -7.37756348 16.12698364 C-7.41713138 11.23544894 -7.41713138 11.23544894 -7.46765137 6.34402466 C-7.47481261 4.60476648 -7.4278105 2.86553061 -7.37756348 1.12698364 C-5.52528449 -0.72529534 -2.47557611 0.00076848 0 0 Z " fill="#A6673E" transform="translate(182.3775634765625,40.873016357421875)"/>
<path d="M0 0 C40.44080907 -0.08262793 80.87564147 0.13347087 121.31496012 0.44538212 C129.38124954 0.50751237 137.44755662 0.56719624 145.51386535 0.62675762 C162.0092636 0.74860974 178.50463594 0.87359101 195 1 C195 10.57 195 20.14 195 30 C200.28 30 205.56 30 211 30 C211 34.95 211 39.9 211 45 C200.11 45 189.22 45 178 45 C178 40.05 178 35.1 178 30 C134.77 30 91.54 30 47 30 C47 20.43 47 10.86 47 1 C31.49 1 15.98 1 0 1 C0 0.67 0 0.34 0 0 Z " fill="#3C2826" transform="translate(161,125)"/>
<path d="M0 0 C20.46 0 40.92 0 62 0 C62 5.28 62 10.56 62 16 C56.72 16 51.44 16 46 16 C46 21.28 46 26.56 46 32 C-33.53 32 -113.06 32 -195 32 C-195 26.72 -195 21.44 -195 16 C-130.32 16 -65.64 16 1 16 C0.67 14.02 0.34 12.04 0 10 C0 6.7 0 3.4 0 0 Z " fill="#A4653C" transform="translate(372,155)"/>
<path d="M0 0 C43.56 0 87.12 0 132 0 C133.7213061 5.16391829 133.05353552 10.59291236 133 16 C127.39 16 121.78 16 116 16 C116 21.61 116 27.22 116 33 C105.34136312 33.02273078 94.68274274 33.04101812 84.02408695 33.05181217 C79.07309622 33.05699675 74.12212315 33.06401245 69.17114258 33.07543945 C64.37949389 33.08642757 59.58786203 33.09231001 54.79620171 33.09487724 C52.98208794 33.09670316 51.16797494 33.10026748 49.35386848 33.10573006 C37.85325048 33.13893451 26.4763018 32.78204462 15 32 C15 27.05 15 22.1 15 17 C10.05 17 5.1 17 0 17 C0 11.39 0 5.78 0 0 Z " fill="#212427" transform="translate(192,393)"/>
<path d="M0 0 C0 22.44 0 44.88 0 68 C4.95 68 9.9 68 15 68 C14.85691406 66.30230469 14.85691406 66.30230469 14.7109375 64.5703125 C14.59840115 63.08858388 14.48645242 61.60681055 14.375 60.125 C14.31054688 59.37863281 14.24609375 58.63226563 14.1796875 57.86328125 C14.03912635 55.9129953 14.01240151 53.95530533 14 52 C16 50 16 50 19.0390625 49.8046875 C20.81410156 49.83949219 20.81410156 49.83949219 22.625 49.875 C23.81351562 49.89304688 25.00203125 49.91109375 26.2265625 49.9296875 C27.59941406 49.96449219 27.59941406 49.96449219 29 50 C28.98839844 49.09636719 28.97679687 48.19273438 28.96484375 47.26171875 C28.95582031 46.08222656 28.94679688 44.90273437 28.9375 43.6875 C28.92589844 42.51574219 28.91429687 41.34398437 28.90234375 40.13671875 C29 37 29 37 30 34 C34.68139254 33.97534712 39.36274759 33.95716261 44.04418945 33.94506836 C45.63794614 33.94002843 47.23169819 33.9331965 48.82543945 33.92456055 C51.11150253 33.91248001 53.39750467 33.90676845 55.68359375 33.90234375 C56.40026718 33.89718246 57.11694061 33.89202118 57.85533142 33.88670349 C59.57063672 33.88650737 61.28581266 33.93807993 63 34 C64 35 64 35 64.12025452 36.82862854 C64.11803391 37.62582809 64.11581329 38.42302765 64.11352539 39.24438477 C64.11341209 40.59567223 64.11341209 40.59567223 64.11329651 41.97425842 C64.10813522 42.95341721 64.10297394 43.93257599 64.09765625 44.94140625 C64.0962413 45.93881332 64.09482635 46.9362204 64.09336853 47.96385193 C64.08775114 51.16343124 64.07519571 54.36294169 64.0625 57.5625 C64.05748724 59.72591045 64.05292395 61.88932199 64.04882812 64.05273438 C64.03777606 69.36851629 64.02049979 74.68424646 64 80 C69.61 80 75.22 80 81 80 C81 91.55 81 103.1 81 115 C79.35 115 77.7 115 76 115 C76.99 114.67 77.98 114.34 79 114 C79 103.44 79 92.88 79 82 C76.10476563 82.16242188 73.20953125 82.32484375 70.2265625 82.4921875 C58.13877854 83.10247218 46.06174511 83.15188511 33.9609375 83.13037109 C30.3723531 83.12499604 26.78389322 83.13036122 23.1953125 83.13671875 C20.8463539 83.13605796 18.49739537 83.13477677 16.1484375 83.1328125 C15.1093222 83.13483673 14.07020691 83.13686096 12.99960327 83.13894653 C3.31434139 83.10936153 -6.33383821 82.56018939 -16 82 C-16.0694096 71.60387983 -16.12276514 61.20781448 -16.15543652 50.81151009 C-16.17111454 45.98444581 -16.1923916 41.15753966 -16.22631836 36.33056641 C-16.25883589 31.6751334 -16.2768369 27.01985281 -16.28463173 22.36431503 C-16.29018896 20.58523025 -16.30104043 18.80615411 -16.31719017 17.02713394 C-16.33886371 14.54150397 -16.34197121 12.05650953 -16.34057617 9.57080078 C-16.351362 8.82993225 -16.36214783 8.08906372 -16.3732605 7.32574463 C-16.36076355 5.27761841 -16.36076355 5.27761841 -16 2 C-13 0 -13 0 0 0 Z " fill="#14191A" transform="translate(372,73)"/>
<path d="M0 0 C53.79 0 107.58 0 163 0 C163 5.28 163 10.56 163 16 C151.45 16 139.9 16 128 16 C128 21.28 128 26.56 128 32 C122.39 32 116.78 32 111 32 C111 37.28 111 42.56 111 48 C105.39 48 99.78 48 94 48 C94 42.72 94 37.44 94 32 C88.72 32 83.44 32 78 32 C78 26.72 78 21.44 78 16 C52.26 16 26.52 16 0 16 C0 10.72 0 5.44 0 0 Z " fill="#0A0F11" transform="translate(177,42)"/>
<path d="M0 0 C0 4.95 0 9.9 0 15 C10.89 15 21.78 15 33 15 C33 13.35 33 11.7 33 10 C33.33 10 33.66 10 34 10 C34 11.98 34 13.96 34 16 C-9.56 16 -53.12 16 -98 16 C-98 11.05 -98 6.1 -98 1 C-96.41316406 1.01160156 -94.82632813 1.02320313 -93.19140625 1.03515625 C-82.38102454 1.08862749 -71.6101936 1.04826886 -60.8125 0.5 C-40.5701238 -0.49856441 -20.26026383 -0.08206625 0 0 Z " fill="#7C4324" transform="translate(339,155)"/>
<path d="M0 0 C9.9 0 19.8 0 30 0 C30 16.5 30 33 30 50 C20.1 50 10.2 50 0 50 C-0.61256216 39.96929461 -1.10322139 29.98742315 -1.125 19.9375 C-1.12951172 19.09485596 -1.13402344 18.25221191 -1.13867188 17.3840332 C-1.12471536 11.47286692 -0.59413294 5.94132945 0 0 Z " fill="#04090A" transform="translate(327,246)"/>
<path d="M0 0 C3.99698334 0.01044004 7.9939736 0.01484074 11.9909668 0.01983643 C19.75986723 0.03039304 27.52872634 0.04789983 35.29760742 0.06866455 C35.29760742 5.34866455 35.29760742 10.62866455 35.29760742 16.06866455 C4.27760742 16.06866455 -26.74239258 16.06866455 -58.70239258 16.06866455 C-58.70239258 11.11866455 -58.70239258 6.16866455 -58.70239258 1.06866455 C-39.12366134 0.05940468 -19.59799326 -0.05682804 0 0 Z " fill="#743E22" transform="translate(140.702392578125,154.93133544921875)"/>
<path d="M0 0 C9.57 0 19.14 0 29 0 C29 16.5 29 33 29 50 C19.1 50 9.2 50 -1 50 C-0.67 33.5 -0.34 17 0 0 Z " fill="#04090A" transform="translate(178,246)"/>
<path d="M0 0 C15.51 0 31.02 0 47 0 C47 9.57 47 19.14 47 29 C31.82 29 16.64 29 1 29 C-0.38308781 26.23382437 -0.11210196 23.98982 -0.09765625 20.8984375 C-0.09515869 19.80708496 -0.09266113 18.71573242 -0.09008789 17.59130859 C-0.08098389 16.19992676 -0.07187988 14.80854492 -0.0625 13.375 C-0.041875 8.96125 -0.02125 4.5475 0 0 Z " fill="#171718" transform="translate(161,126)"/>
<path d="M0 0 C4.95 0 9.9 0 15 0 C15 28.38 15 56.76 15 86 C10.05 86 5.1 86 0 86 C0 57.62 0 29.24 0 0 Z " fill="#202427" transform="translate(325,426)"/>
<path d="M0 0 C4.62 0 9.24 0 14 0 C14 28.38 14 56.76 14 86 C9.05 86 4.1 86 -1 86 C-1.02266239 76.26353864 -1.04097934 66.52709502 -1.05181217 56.79061317 C-1.05701341 52.26876464 -1.06406054 47.7469352 -1.07543945 43.22509766 C-1.0863669 38.85493153 -1.09229758 34.48478369 -1.09487724 30.11460495 C-1.09671382 28.45379728 -1.10029994 26.79299052 -1.10573006 25.1321907 C-1.13219837 16.69535872 -1.06210221 8.38656488 0 0 Z " fill="#1E2224" transform="translate(162,426)"/>
<path d="M0 0 C4.95 0 9.9 0 15 0 C15 23.76 15 47.52 15 72 C9.72 72 4.44 72 -1 72 C-0.67 48.24 -0.34 24.48 0 0 Z " fill="#202326" transform="translate(241,440)"/>
<path d="M0 0 C16.5 0 33 0 50 0 C50 5.28 50 10.56 50 16 C44.39 16 38.78 16 33 16 C33 21.28 33 26.56 33 32 C27.39 32 21.78 32 16 32 C16 26.72 16 21.44 16 16 C10.72 16 5.44 16 0 16 C0 10.72 0 5.44 0 0 Z " fill="#42261D" transform="translate(255,58)"/>
<path d="M0 0 C15.84 0 31.68 0 48 0 C48 5.61 48 11.22 48 17 C42.72 17 37.44 17 32 17 C32.020625 19.10375 32.04125 21.2075 32.0625 23.375 C32.125 29.75 32.125 29.75 31 32 C25.72 32 20.44 32 15 32 C15 27.05 15 22.1 15 17 C10.05 17 5.1 17 0 17 C0 11.39 0 5.78 0 0 Z " fill="#151A1D" transform="translate(192,393)"/>
<path d="M0 0 C15.18 0 30.36 0 46 0 C46 5.28 46 10.56 46 16 C30.82 16 15.64 16 0 16 C0 10.72 0 5.44 0 0 Z " fill="#542B19" transform="translate(115,171)"/>
<path d="M0 0 C0.66 0 1.32 0 2 0 C2 5.28 2 10.56 2 16 C-3.16391829 17.7213061 -8.59291236 17.05353552 -14 17 C-14 21.29 -14 25.58 -14 30 C-12.39318359 29.98259766 -12.39318359 29.98259766 -10.75390625 29.96484375 C-9.35677257 29.95546701 -7.95963701 29.94636669 -6.5625 29.9375 C-5.85544922 29.92912109 -5.14839844 29.92074219 -4.41992188 29.91210938 C-2.61306441 29.90346412 -0.80612397 29.94779989 1 30 C2 31 2 31 2.12025452 33.54994202 C2.11803391 34.68467453 2.11581329 35.81940704 2.11352539 36.98852539 C2.11344986 38.26977798 2.11337433 39.55103058 2.11329651 40.87110901 C2.10818909 42.27995848 2.10297309 43.68880756 2.09765625 45.09765625 C2.09579202 46.53112234 2.09436814 47.96458907 2.09336853 49.39805603 C2.08954372 53.17759957 2.07971377 56.9571049 2.06866455 60.7366333 C2.05844963 64.59069298 2.05387074 68.44475882 2.04882812 72.29882812 C2.03809146 79.86590287 2.02101549 87.43294609 2 95 C2.58659897 94.98525131 3.17319794 94.97050262 3.77757263 94.95530701 C9.86012359 94.80336933 15.94281326 94.65850378 22.02563477 94.51782227 C24.29846508 94.4643152 26.57125308 94.40897944 28.84399414 94.35180664 C32.10293449 94.27013784 35.36196836 94.19495749 38.62109375 94.12109375 C39.64400009 94.09405869 40.66690643 94.06702362 41.72080994 94.03916931 C42.66170975 94.01907303 43.60260956 93.99897675 44.57202148 93.97827148 C45.40475082 93.95828598 46.23748016 93.93830048 47.09544373 93.91770935 C49 94 49 94 50 95 C50.09981214 97.6773138 50.13879875 100.32304175 50.125 103 C50.12886719 103.75023437 50.13273437 104.50046875 50.13671875 105.2734375 C50.12661053 110.87338947 50.12661053 110.87338947 49 112 C47.52645652 112.09304018 46.04849409 112.11746265 44.57202148 112.11352539 C43.63112167 112.11344986 42.69022186 112.11337433 41.72080994 112.11329651 C40.69790359 112.10813522 39.67499725 112.10297394 38.62109375 112.09765625 C37.57929459 112.0962413 36.53749542 112.09482635 35.46412659 112.09336853 C32.12188906 112.0877508 28.77971743 112.0751953 25.4375 112.0625 C23.17773534 112.05748728 20.91796963 112.05292398 18.65820312 112.04882812 C13.10544318 112.03777561 7.55273278 112.0204991 2 112 C2 116.29 2 120.58 2 125 C5.21363281 124.87431641 5.21363281 124.87431641 8.4921875 124.74609375 C10.56392038 124.66872082 12.63571256 124.59318218 14.70751953 124.51782227 C16.14899823 124.4644041 17.59040741 124.40907482 19.03173828 124.35180664 C21.10173553 124.26989003 23.17188427 124.19481641 25.2421875 124.12109375 C27.11173096 124.05039673 27.11173096 124.05039673 29.01904297 123.97827148 C32 124 32 124 34 125 C34.054138 127.24973447 34.09285491 129.49984383 34.125 131.75 C34.14820313 133.00296875 34.17140625 134.2559375 34.1953125 135.546875 C34 139 34 139 32 143 C16.82 142.67 1.64 142.34 -14 142 C-14 147.28 -14 152.56 -14 158 C-19.28 158 -24.56 158 -30 158 C-30 162.95 -30 167.9 -30 173 C-30.33 173 -30.66 173 -31 173 C-31 167.72 -31 162.44 -31 157 C-25.72 157 -20.44 157 -15 157 C-15 151.72 -15 146.44 -15 141 C0.51 141 16.02 141 32 141 C32 136.05 32 131.1 32 126 C21.77 126 11.54 126 1 126 C1 121.05 1 116.1 1 111 C16.51 111 32.02 111 48 111 C48 106.05 48 101.1 48 96 C32.16 96 16.32 96 0 96 C0 74.55 0 53.1 0 31 C-5.28 31 -10.56 31 -16 31 C-16.020625 28.545625 -16.04125 26.09125 -16.0625 23.5625 C-16.071604 22.78849854 -16.08070801 22.01449707 -16.09008789 21.21704102 C-16.09724913 19.47778283 -16.05024702 17.73854696 -16 16 C-15 15 -15 15 -11.62109375 14.90234375 C-10.22652508 14.90808576 -8.83198403 14.92109772 -7.4375 14.9375 C-4.983125 14.958125 -2.52875 14.97875 0 15 C0 10.05 0 5.1 0 0 Z " fill="#CECECD" transform="translate(434,188)"/>
<path d="M0 0 C10.89 0 21.78 0 33 0 C33 4.95 33 9.9 33 15 C22.11 15 11.22 15 0 15 C0 10.05 0 5.1 0 0 Z " fill="#5E301A" transform="translate(339,155)"/>
<path d="M0 0 C0 5.28 0 10.56 0 16 C-10.23 16 -20.46 16 -31 16 C-31.33 11.05 -31.66 6.1 -32 1 C-21.29936463 -0.00711862 -10.7391963 -0.10206206 0 0 Z " fill="#A3653B" transform="translate(176,155)"/>
<path d="M0 0 C9.9 0 19.8 0 30 0 C30 5.28 30 10.56 30 16 C20.1 16 10.2 16 0 16 C0 10.72 0 5.44 0 0 Z " fill="#7D4324" transform="translate(388,171)"/>
<path d="M0 0 C0.33 0 0.66 0 1 0 C1.495 6.93 1.495 6.93 2 14 C6.95 14.33 11.9 14.66 17 15 C17 20.61 17 26.22 17 32 C12.05 32 7.1 32 2 32 C2 39.26 2 46.52 2 54 C1.67 54 1.34 54 1 54 C1 41.46 1 28.92 1 16 C-3.95 15.67 -8.9 15.34 -14 15 C-14 33.81 -14 52.62 -14 72 C-14.33 72 -14.66 72 -15 72 C-15.88435612 65.18158796 -16.1467168 58.52760346 -16.1328125 51.65625 C-16.13376923 50.60594604 -16.13472595 49.55564209 -16.13571167 48.47351074 C-16.13638807 46.2717279 -16.13457173 44.069943 -16.13037109 41.86816406 C-16.1249719 38.48237724 -16.13035634 35.09672048 -16.13671875 31.7109375 C-16.13605872 29.56770804 -16.13477911 27.42447866 -16.1328125 25.28125 C-16.13483673 24.26470337 -16.13686096 23.24815674 -16.13894653 22.20080566 C-16.13579437 21.26893433 -16.13264221 20.33706299 -16.12939453 19.37695312 C-16.12859894 18.55360474 -16.12780334 17.73025635 -16.12698364 16.88195801 C-16 15 -16 15 -15 14 C-12.46950598 13.92686433 -9.96695163 13.90752473 -7.4375 13.9375 C-6.72658203 13.94201172 -6.01566406 13.94652344 -5.28320312 13.95117188 C-3.52209987 13.96299136 -1.76103964 13.98092737 0 14 C-0.33 13.34 -0.66 12.68 -1 12 C-1.09584979 10.1478437 -1.12983606 8.29212847 -1.125 6.4375 C-1.12886719 4.95056641 -1.12886719 4.95056641 -1.1328125 3.43359375 C-1 1 -1 1 0 0 Z " fill="#8C7064" transform="translate(159,58)"/>
<path d="M0 0 C0.673935 -0.00155999 1.34787 -0.00311998 2.04222727 -0.00472724 C4.31703233 -0.00873922 6.59177151 -0.00554685 8.86657715 -0.00241089 C10.49069763 -0.00376484 12.11481779 -0.00554474 13.73893738 -0.00772095 C18.16236556 -0.01229599 22.58577053 -0.01050543 27.00919914 -0.00734186 C31.62787821 -0.00481862 36.24655523 -0.0071557 40.86523438 -0.00872803 C48.62300983 -0.01054983 56.38077579 -0.00814314 64.1385498 -0.00338745 C73.12093127 0.00205519 82.10329004 0.00029254 91.08567095 -0.00521386 C98.78330954 -0.00974469 106.48094127 -0.01039568 114.17858076 -0.00777519 C118.78237245 -0.00621225 123.38615345 -0.00601911 127.98994446 -0.00931168 C132.31710185 -0.01218995 136.64422985 -0.0102155 140.97138405 -0.00441742 C142.56417098 -0.00308959 144.15696036 -0.00348433 145.74974632 -0.00568008 C147.91482253 -0.0083907 150.07980303 -0.00501159 152.24487305 0 C153.45941917 0.00037703 154.6739653 0.00075405 155.92531586 0.0011425 C158.62243652 0.12698364 158.62243652 0.12698364 159.62243652 1.12698364 C159.53212078 3.48393318 159.37555524 5.83851947 159.18493652 8.18948364 C159.08310059 9.47983521 158.98126465 10.77018677 158.87634277 12.09963989 C158.79255371 13.09866333 158.70876465 14.09768677 158.62243652 15.12698364 C159.6820459 15.11538208 160.74165527 15.10378052 161.83337402 15.09182739 C163.2213931 15.08244889 164.60941407 15.07334875 165.99743652 15.06448364 C166.6961084 15.05610474 167.39478027 15.04772583 168.11462402 15.03909302 C173.39587402 15.01370239 173.39587402 15.01370239 175.62243652 16.12698364 C175.62243652 21.07698364 175.62243652 26.02698364 175.62243652 31.12698364 C178.59243652 30.63198364 178.59243652 30.63198364 181.62243652 30.12698364 C183.22491938 30.04251168 184.83023814 29.99651619 186.43493652 30.00198364 C187.58929199 29.99811646 187.58929199 29.99811646 188.76696777 29.99417114 C190.62243652 30.12698364 190.62243652 30.12698364 191.62243652 31.12698364 C191.71661425 33.21317387 191.7398653 35.30258841 191.73596191 37.39089966 C191.73610794 38.04453491 191.73625397 38.69817017 191.73640442 39.37161255 C191.73570535 41.54140493 191.7279133 43.71111243 191.72009277 45.88088989 C191.71822857 47.38161675 191.71680468 48.88234422 191.71580505 50.3830719 C191.71198005 54.34016591 191.70214992 58.29722343 191.69110107 62.25430298 C191.68088658 66.28933214 191.67630735 70.32436717 191.67126465 74.35940552 C191.66052763 82.2819502 191.64293098 90.20445818 191.62243652 98.12698364 C195.91243652 98.12698364 200.20243652 98.12698364 204.62243652 98.12698364 C204.62243652 98.78698364 204.62243652 99.44698364 204.62243652 100.12698364 C199.67243652 100.12698364 194.72243652 100.12698364 189.62243652 100.12698364 C189.62243652 77.68698364 189.62243652 55.24698364 189.62243652 32.12698364 C184.67243652 32.12698364 179.72243652 32.12698364 174.62243652 32.12698364 C174.62243652 27.17698364 174.62243652 22.22698364 174.62243652 17.12698364 C169.01243652 17.12698364 163.40243652 17.12698364 157.62243652 17.12698364 C157.62243652 11.84698364 157.62243652 6.56698364 157.62243652 1.12698364 C103.83243652 1.45698364 50.04243652 1.78698364 -5.37756348 2.12698364 C-5.70756348 7.07698364 -6.03756348 12.02698364 -6.37756348 17.12698364 C-11.65756348 17.12698364 -16.93756348 17.12698364 -22.37756348 17.12698364 C-22.37756348 16.79698364 -22.37756348 16.46698364 -22.37756348 16.12698364 C-17.42756348 16.12698364 -12.47756348 16.12698364 -7.37756348 16.12698364 C-7.41713138 11.23544894 -7.41713138 11.23544894 -7.46765137 6.34402466 C-7.47481261 4.60476648 -7.4278105 2.86553061 -7.37756348 1.12698364 C-5.52528449 -0.72529534 -2.47557611 0.00076848 0 0 Z " fill="#FAFAF8" transform="translate(182.3775634765625,40.873016357421875)"/>
<path d="M0 0 C7.26 0 14.52 0 22 0 C22 4.62 22 9.24 22 14 C22.66 14.33 23.32 14.66 24 15 C16.08 15 8.16 15 0 15 C0 10.05 0 5.1 0 0 Z " fill="#5C2E19" transform="translate(82,156)"/>
<path d="M0 0 C0.66 0 1.32 0 2 0 C2.33 4.95 2.66 9.9 3 15 C7.95 15 12.9 15 18 15 C18 31.83 18 48.66 18 66 C13.05 66 8.1 66 3 66 C3 71.28 3 76.56 3 82 C2.67 82 2.34 82 2 82 C2 76.72 2 71.44 2 66 C-7.9 66 -17.8 66 -28 66 C-28 65.67 -28 65.34 -28 65 C-18.1 65 -8.2 65 2 65 C2 48.5 2 32 2 15 C-7.57 15 -17.14 15 -27 15 C-26.98839844 18.11824219 -26.97679687 21.23648438 -26.96484375 24.44921875 C-26.9570417 27.47420144 -26.95097146 30.499183 -26.94506836 33.52416992 C-26.94004419 35.62410993 -26.93322375 37.72404646 -26.92456055 39.82397461 C-26.9124111 42.84489809 -26.90675247 45.86577526 -26.90234375 48.88671875 C-26.89718246 49.82335861 -26.89202118 50.75999847 -26.88670349 51.72502136 C-26.88634154 55.94460038 -26.91283354 59.88832892 -28 64 C-28.33 64 -28.66 64 -29 64 C-28.67 47.5 -28.34 31 -28 14 C-18.43 13.67 -8.86 13.34 1 13 C0.505 6.565 0.505 6.565 0 0 Z M3 16 C3 32.17 3 48.34 3 65 C7.62 65 12.24 65 17 65 C17 48.83 17 32.66 17 16 C12.38 16 7.76 16 3 16 Z " fill="#B3B2B1" transform="translate(205,231)"/>
<path d="M0 0 C0.33 0 0.66 0 1 0 C1 10.56 1 21.12 1 32 C-4.28 32 -9.56 32 -15 32 C-15 26.72 -15 21.44 -15 16 C-10.05 16 -5.1 16 0 16 C0 10.72 0 5.44 0 0 Z " fill="#7C4324" transform="translate(176,155)"/>
<path d="M0 0 C5.61 0 11.22 0 17 0 C17 5.28 17 10.56 17 16 C11.39 16 5.78 16 0 16 C0 10.72 0 5.44 0 0 Z " fill="#753E23" transform="translate(271,74)"/>
<path d="M0 0 C5.28 0 10.56 0 16 0 C16 5.28 16 10.56 16 16 C10.72 16 5.44 16 0 16 C0 10.72 0 5.44 0 0 Z " fill="#151A1D" transform="translate(176,410)"/>
<path d="M0 0 C5.28 0 10.56 0 16 0 C16 4.95 16 9.9 16 15 C10.72 15 5.44 15 0 15 C0 10.05 0 5.1 0 0 Z " fill="#020809" transform="translate(340,58)"/>
<path d="M0 0 C5.28 0 10.56 0 16 0 C16 4.95 16 9.9 16 15 C13.545625 15.020625 11.09125 15.04125 8.5625 15.0625 C7.78849854 15.071604 7.01449707 15.08070801 6.21704102 15.09008789 C4.47778283 15.09724913 2.73854696 15.05024702 1 15 C0 14 0 14 -0.09765625 10.83984375 C-0.04882812 5.41992188 -0.04882812 5.41992188 0 0 Z " fill="#05090B" transform="translate(160,58)"/>
<path d="M0 0 C0 4.95 0 9.9 0 15 C1.98 14.67 3.96 14.34 6 14 C7.60248285 13.91552804 9.20780161 13.86953254 10.8125 13.875 C11.96685547 13.87113281 11.96685547 13.87113281 13.14453125 13.8671875 C15 14 15 14 16 15 C16.09417773 17.08619022 16.11742878 19.17560477 16.11352539 21.26391602 C16.11367142 21.91755127 16.11381744 22.57118652 16.1139679 23.24462891 C16.11326883 25.41442128 16.10547678 27.58412879 16.09765625 29.75390625 C16.09579205 31.25463311 16.09436816 32.75536057 16.09336853 34.25608826 C16.08954352 38.21318226 16.0797134 42.17023978 16.06866455 46.12731934 C16.05845006 50.16234849 16.05387083 54.19738353 16.04882812 58.23242188 C16.0380911 66.15496656 16.02049445 74.07747454 16 82 C20.29 82 24.58 82 29 82 C29 82.66 29 83.32 29 84 C24.05 84 19.1 84 14 84 C14 61.56 14 39.12 14 16 C9.05 16 4.1 16 -1 16 C-1 11.05 -1 6.1 -1 1 C-6.61 1 -12.22 1 -18 1 C-18 0.67 -18 0.34 -18 0 C-16.31372397 -0.19820604 -14.6258679 -0.38298309 -12.9375 -0.5625 C-11.99777344 -0.66691406 -11.05804688 -0.77132812 -10.08984375 -0.87890625 C-7 -1 -7 -1 0 0 Z " fill="#D5D4D3" transform="translate(358,57)"/>
<path d="M0 0 C0.33 0 0.66 0 1 0 C1 3.63 1 7.26 1 11 C-9.23 11 -19.46 11 -30 11 C-30 15.62 -30 20.24 -30 25 C-14.82 25.33 0.36 25.66 16 26 C16 26.33 16 26.66 16 27 C9.3247966 27.02526945 2.64960543 27.04283268 -4.02563477 27.05493164 C-6.29842591 27.05997325 -8.5712138 27.06680637 -10.84399414 27.07543945 C-14.10303551 27.08751261 -17.36203417 27.09322987 -20.62109375 27.09765625 C-21.64400009 27.10281754 -22.66690643 27.10797882 -23.72080994 27.11329651 C-24.66170975 27.11337204 -25.60260956 27.11344757 -26.57202148 27.11352539 C-27.40475082 27.115746 -28.23748016 27.11796661 -29.09544373 27.12025452 C-31 27 -31 27 -32 26 C-32.09997642 23.50941086 -32.13879627 21.05272605 -32.125 18.5625 C-32.12886719 17.86833984 -32.13273437 17.17417969 -32.13671875 16.45898438 C-32.12663994 11.25327988 -32.12663994 11.25327988 -31 9 C-20.77 9.33 -10.54 9.66 0 10 C0 6.7 0 3.4 0 0 Z " fill="#B4B5B4" transform="translate(81,303)"/>
</svg>
