<svg width="94" height="67" viewBox="0 0 94 67" fill="none" xmlns="http://www.w3.org/2000/svg">
<path d="M80.2187 66.625H13.2812C9.76011 66.6209 6.38438 65.2203 3.89456 62.7304C1.40473 60.2406 0.00413522 56.8649 0 53.3437V13.2812C0.00413522 9.76011 1.40473 6.38438 3.89456 3.89456C6.38438 1.40473 9.76011 0.00413522 13.2812 0H80.2187C83.7399 0.00413522 87.1156 1.40473 89.6055 3.89456C92.0953 6.38438 93.4959 9.76011 93.5 13.2812V53.3437C93.4959 56.8649 92.0953 60.2406 89.6055 62.7304C87.1156 65.2203 83.7399 66.6209 80.2187 66.625ZM13.2812 4.6875C11.002 4.6875 8.81619 5.59291 7.20455 7.20455C5.59291 8.81619 4.6875 11.002 4.6875 13.2812V53.3437C4.6875 55.623 5.59291 57.8088 7.20455 59.4204C8.81619 61.0321 11.002 61.9375 13.2812 61.9375H80.2187C82.4979 61.9375 84.6838 61.0321 86.2954 59.4204C87.9071 57.8088 88.8125 55.623 88.8125 53.3437V13.2812C88.8125 11.002 87.9071 8.81619 86.2954 7.20455C84.6838 5.59291 82.4979 4.6875 80.2187 4.6875H13.2812Z" fill="#E7F9F2"/>
<path d="M46.75 42.8125C43.8587 42.817 41.0447 41.879 38.7344 40.1406L2.25003 12.5468C1.99225 12.3659 1.77357 12.1349 1.60707 11.8676C1.44056 11.6003 1.32963 11.3022 1.28091 10.991C1.23218 10.6799 1.24666 10.3621 1.32348 10.0567C1.40031 9.75129 1.53789 9.46448 1.72802 9.21343C1.91815 8.96237 2.15693 8.7522 2.4301 8.59548C2.70326 8.43876 3.00521 8.3387 3.31791 8.30128C3.63061 8.26385 3.94764 8.28983 4.25008 8.37766C4.55251 8.46549 4.83414 8.61337 5.07815 8.81247L41.5625 36.4375C43.0608 37.5559 44.8804 38.1601 46.75 38.1601C48.6197 38.1601 50.4393 37.5559 51.9375 36.4375L88.4219 8.81247C88.6659 8.61337 88.9475 8.46549 89.25 8.37766C89.5524 8.28983 89.8694 8.26385 90.1821 8.30128C90.4948 8.3387 90.7968 8.43876 91.0699 8.59548C91.3431 8.7522 91.5819 8.96237 91.772 9.21343C91.9622 9.46448 92.0997 9.75129 92.1766 10.0567C92.2534 10.3621 92.2679 10.6799 92.2191 10.991C92.1704 11.3022 92.0595 11.6003 91.893 11.8676C91.7265 12.1349 91.5078 12.3659 91.25 12.5468L54.7656 40.1406C52.4553 41.879 49.6413 42.817 46.75 42.8125Z" fill="#E7F9F2"/>
<path d="M3.26565 60.0938C2.7903 60.0945 2.32597 59.9507 1.93427 59.6814C1.54258 59.412 1.24204 59.03 1.07253 58.5859C0.903026 58.1417 0.872567 57.6566 0.985196 57.1948C1.09783 56.733 1.34822 56.3163 1.70315 56.0001L30.4532 30.3595C30.9173 29.9451 31.527 29.732 32.1482 29.7672C32.7694 29.8023 33.3513 30.0828 33.7657 30.547C34.1801 31.0111 34.3931 31.6208 34.3579 32.2421C34.3228 32.8633 34.0423 33.4451 33.5782 33.8595L4.82815 59.5001C4.4012 59.8886 3.84285 60.1007 3.26565 60.0938ZM90.2344 60.0938C89.6572 60.1007 89.0989 59.8886 88.6719 59.5001L59.9219 33.8595C59.4578 33.4451 59.1773 32.8633 59.1421 32.2421C59.1069 31.6208 59.32 31.0111 59.7344 30.547C60.1488 30.0828 60.7306 29.8023 61.3518 29.7672C61.973 29.732 62.5828 29.9451 63.0469 30.3595L91.7813 56.0001C92.1362 56.3163 92.3866 56.733 92.4992 57.1948C92.6119 57.6566 92.5814 58.1417 92.4119 58.5859C92.2424 59.03 91.9419 59.412 91.5502 59.6814C91.1585 59.9507 90.6941 60.0945 90.2188 60.0938H90.2344Z" fill="#E7F9F2"/>
</svg>
