<svg width="102" height="101" viewBox="0 0 102 101" fill="none" xmlns="http://www.w3.org/2000/svg">
<path d="M50.9653 0C22.8226 0 2.94137e-05 22.9656 2.94137e-05 51.2957C-0.0114686 62.0475 3.34832 72.5311 9.60457 81.2648C15.8608 89.9985 24.6971 96.5406 34.8647 99.9666C37.4132 100.439 38.3435 98.8553 38.3435 97.495C38.3435 96.2752 38.2989 93.0501 38.2734 88.7712C24.0969 91.8686 21.1023 81.893 21.1023 81.893C18.7895 75.9664 15.4444 74.389 15.4444 74.389C10.8124 71.2085 15.7885 71.2724 15.7885 71.2724C20.9048 71.6364 23.5935 76.5604 23.5935 76.5604C28.1428 84.3965 35.5273 82.1357 38.4327 80.8201C38.8914 77.5056 40.2103 75.2448 41.6694 73.9611C30.3537 72.6647 18.4518 68.2644 18.4518 48.6134C18.4518 43.0125 20.4397 38.4335 23.7019 34.8443C23.173 33.5478 21.4272 28.3301 24.1988 21.2732C24.1988 21.2732 28.4805 19.8937 38.216 26.5292C42.375 25.3899 46.6666 24.8101 50.9781 24.8048C55.2897 24.8134 59.5812 25.3954 63.7401 26.5356C73.4693 19.9001 77.7446 21.2795 77.7446 21.2795C80.5225 28.3429 78.7767 33.5542 78.2543 34.8507C81.5228 38.4398 83.4916 43.0189 83.4916 48.6198C83.4916 68.3219 71.577 72.6583 60.2231 73.9292C62.0517 75.513 63.6828 78.6423 63.6828 83.4258C63.6828 90.2848 63.619 95.8154 63.619 97.495C63.619 98.8681 64.5365 100.465 67.1233 99.9602C77.281 96.5261 86.1063 89.9815 92.3539 81.2499C98.6014 72.5184 101.956 62.0407 101.943 51.2957C101.943 22.9656 79.1208 0 50.9653 0Z" fill="#E7F9F2"/>
</svg>
