<svg width="100" height="101" viewBox="0 0 100 101" fill="none" xmlns="http://www.w3.org/2000/svg">
<path d="M92.515 0.000706135H7.38713C6.43021 -0.012649 5.48005 0.163554 4.5909 0.519252C3.70176 0.87495 2.89105 1.40318 2.20507 2.07376C1.51909 2.74435 0.971289 3.54416 0.59294 4.42752C0.214591 5.31088 0.0131079 6.26049 0 7.22211V93.7779C0.0131079 94.7395 0.214591 95.6891 0.59294 96.5725C0.971289 97.4558 1.51909 98.2556 2.20507 98.9262C2.89105 99.5968 3.70176 100.125 4.5909 100.481C5.48005 100.836 6.43021 101.013 7.38713 100.999H92.515C93.4719 101.013 94.4221 100.836 95.3113 100.481C96.2004 100.125 97.0111 99.5968 97.6971 98.9262C98.3831 98.2556 98.9309 97.4558 99.3092 96.5725C99.6876 95.6891 99.8891 94.7395 99.9022 93.7779V7.22211C99.8891 6.26049 99.6876 5.31088 99.3092 4.42752C98.9309 3.54416 98.3831 2.74435 97.6971 2.07376C97.0111 1.40318 96.2004 0.87495 95.3113 0.519252C94.4221 0.163554 93.4719 -0.012649 92.515 0.000706135ZM30.3023 84.5365H15.2265V39.0872H30.3023V84.5365ZM22.7644 32.7242C20.6853 32.7242 18.6913 31.8943 17.2211 30.4169C15.751 28.9395 14.925 26.9357 14.925 24.8464C14.925 22.757 15.751 20.7532 17.2211 19.2758C18.6913 17.7985 20.6853 16.9685 22.7644 16.9685C23.8685 16.8426 24.9865 16.9526 26.0453 17.2911C27.1041 17.6296 28.0798 18.189 28.9086 18.9327C29.7373 19.6764 30.4004 20.5876 30.8544 21.6067C31.3085 22.6258 31.5431 23.7298 31.5431 24.8464C31.5431 25.9629 31.3085 27.0669 30.8544 28.086C30.4004 29.1051 29.7373 30.0163 28.9086 30.76C28.0798 31.5037 27.1041 32.0631 26.0453 32.4016C24.9865 32.7401 23.8685 32.8501 22.7644 32.7242ZM84.6756 84.5365H69.5998V60.1454C69.5998 54.0349 67.439 50.0455 61.9614 50.0455C60.2662 50.058 58.6156 50.5923 57.2319 51.5765C55.8481 52.5607 54.7979 53.9475 54.2226 55.5499C53.8293 56.7369 53.6589 57.9869 53.72 59.2364V84.486H38.6442C38.6442 84.486 38.6442 43.1776 38.6442 39.0367H53.72V45.4501C55.0896 43.062 57.0815 41.0946 59.4812 39.7598C61.8809 38.425 64.5975 37.7734 67.3385 37.8752C77.389 37.8752 84.6756 44.3896 84.6756 58.3779V84.5365Z" fill="#E7F9F2"/>
</svg>
